# xmcd CD database file
#
# Track frame offsets:
#	150
#	36458
#	58543
#	80282
#	105677
#	133086
#	151424
#	179312
#	211223
#	231292
#	251426
#	270327
#	284419
#	298418
#	311077
#
# Disc length: 4337 seconds
#
# Revision: 0
# Processed by: cddbd v1.5.2PL0 Copyright (c) Steve Scherf et al.
# Submitted via: CDex 1.50beta9
#
DISCID=de10ef0f
DTITLE=PHIL WOODS - WARM
DYEAR=1957
DGENRE=Jazz
TTITLE0=IN YOUR OWN SWEET WAY
TTITLE1=EASY LIVING
TTITLE2=I LOVE YOU
TTITLE3=SQUIRE'S PARLOR
TTITLE4=WAIT TILL YOU SEE HER
TTITLE5=WALTZ FOR A LOVELY WIFE
TTITLE6=LIKE SOMEONE IN LOVE
TTITLE7=GUNGA DIN
TTITLE8=I'VE GOT A FEELIN' YOU'RE FOOLIN
TTITLE9=TOOK THE SPOOK
TTITLE10=DELIGHTED
TTITLE11=BLUES IN PIG ALLEY
TTITLE12=EASY LIVING[2]
TTITLE13=WAILING ON THE LEFT BANK
TTITLE14=THERE WILL NEVER BE NOTHER YOU
EXTD=YEAR: 1957
EXTT0=
EXTT1=
EXTT2=
EXTT3=
EXTT4=
EXTT5=
EXTT6=
EXTT7=
EXTT8=
EXTT9=
EXTT10=
EXTT11=
EXTT12=
EXTT13=
EXTT14=
PLAYORDER=
